<svg xmlns="http://www.w3.org/2000/svg" viewBox="0 0 24 24"><defs><style>.cls-1{fill:#1e0f00;}</style></defs><g id="Слой_2" data-name="Слой 2"><g id="Layer_1" data-name="Layer 1"><path class="cls-1" d="M14.42,13.51a.77.77,0,1,1-.76-.77A.76.76,0,0,1,14.42,13.51Z"/><path class="cls-1" d="M10.34,20.66a.77.77,0,1,1-.77-.77A.77.77,0,0,1,10.34,20.66Z"/><path class="cls-1" d="M3.19,7.38a.78.78,0,0,1-.77.77.77.77,0,0,1,0-1.54A.78.78,0,0,1,3.19,7.38Z"/><path class="cls-1" d="M7.27,1.25A.77.77,0,1,1,6.51.49.76.76,0,0,1,7.27,1.25Z"/><path class="cls-1" d="M23.61,10.44a.77.77,0,1,1-.76-.76A.76.76,0,0,1,23.61,10.44Z"/><circle class="cls-1" cx="19.78" cy="3.29" r="0.77"/><path class="cls-1" d="M4.85,20.94a.77.77,0,0,1-.76-.77A3.32,3.32,0,0,0,.77,16.85a.77.77,0,1,1,0-1.53A3.32,3.32,0,0,0,4.09,12a.77.77,0,0,1,.76-.77.78.78,0,0,1,.77.77,3.32,3.32,0,0,0,3.32,3.32.77.77,0,0,1,0,1.53,3.32,3.32,0,0,0-3.32,3.32A.78.78,0,0,1,4.85,20.94ZM3.38,16.09a4.79,4.79,0,0,1,1.47,1.47,4.79,4.79,0,0,1,1.47-1.47,4.94,4.94,0,0,1-1.47-1.48A4.94,4.94,0,0,1,3.38,16.09Z"/><path class="cls-1" d="M18.13,24a.76.76,0,0,1-.77-.77A4.35,4.35,0,0,0,13,18.89a.77.77,0,0,1,0-1.53A4.35,4.35,0,0,0,17.36,13a.77.77,0,0,1,1.53,0,4.35,4.35,0,0,0,4.34,4.34.77.77,0,1,1,0,1.53,4.35,4.35,0,0,0-4.34,4.34A.76.76,0,0,1,18.13,24Zm-2.21-5.87a5.93,5.93,0,0,1,2.21,2.21,5.86,5.86,0,0,1,2.21-2.21,5.93,5.93,0,0,1-2.21-2.21A6,6,0,0,1,15.92,18.13Z"/><path class="cls-1" d="M12,11.74a.77.77,0,0,1-.77-.76A4.34,4.34,0,0,0,6.89,6.64a.77.77,0,0,1,0-1.53A4.34,4.34,0,0,0,11.23.77a.77.77,0,1,1,1.54,0,4.34,4.34,0,0,0,4.34,4.34.77.77,0,0,1,0,1.53A4.34,4.34,0,0,0,12.77,11,.77.77,0,0,1,12,11.74ZM9.79,5.87A5.93,5.93,0,0,1,12,8.08a5.93,5.93,0,0,1,2.21-2.21A5.86,5.86,0,0,1,12,3.66,5.86,5.86,0,0,1,9.79,5.87Z"/></g></g></svg>