<svg xmlns="http://www.w3.org/2000/svg" viewBox="0 0 24 24"><defs><style>.cls-1{fill:#1e0f00;}</style></defs><g id="Слой_2" data-name="Слой 2"><g id="Layer_1" data-name="Layer 1"><path class="cls-1" d="M22.21,19.92H1.79A1.79,1.79,0,0,1,0,18.13V1.79A1.79,1.79,0,0,1,1.79,0H22.21A1.79,1.79,0,0,1,24,1.79V18.13A1.79,1.79,0,0,1,22.21,19.92ZM1.79,1.53a.26.26,0,0,0-.26.26V18.13a.26.26,0,0,0,.26.25H22.21a.26.26,0,0,0,.26-.25V1.79a.26.26,0,0,0-.26-.26Z"/><path class="cls-1" d="M16.09,24H7.91a.76.76,0,0,1-.76-.77V19.15a.77.77,0,0,1,.76-.77h8.18a.77.77,0,0,1,.76.77v4.08A.76.76,0,0,1,16.09,24ZM8.68,22.47h6.64V19.92H8.68Z"/><path class="cls-1" d="M21.19,24H2.81a.77.77,0,1,1,0-1.53H21.19a.77.77,0,1,1,0,1.53Z"/><path class="cls-1" d="M10,15.83a1,1,0,0,1-.29-.05.77.77,0,0,1-.42-1L13.33,4.57a.77.77,0,0,1,1-.43.77.77,0,0,1,.42,1L10.67,15.35A.77.77,0,0,1,10,15.83Z"/><path class="cls-1" d="M6.89,13.79a.75.75,0,0,1-.63-.34l-2-3.07a.77.77,0,0,1,0-.85L6.26,6.47a.76.76,0,1,1,1.27.85L5.77,10,7.53,12.6a.76.76,0,0,1-.21,1.06A.75.75,0,0,1,6.89,13.79Z"/><path class="cls-1" d="M17.11,13.79a.75.75,0,0,1-.43-.13.76.76,0,0,1-.21-1.06L18.23,10,16.47,7.32a.76.76,0,0,1,1.27-.85l2.05,3.06a.77.77,0,0,1,0,.85l-2.05,3.07A.75.75,0,0,1,17.11,13.79Z"/></g></g></svg>