<svg xmlns="http://www.w3.org/2000/svg" viewBox="0 0 24 24"><defs><style>.cls-1{fill:#1e0f00;}</style></defs><g id="Слой_2" data-name="Слой 2"><g id="Layer_1" data-name="Layer 1"><path class="cls-1" d="M23,15.16l-.16,0a.76.76,0,0,1-.59-.91A10.47,10.47,0,0,0,14.67,1.88a.77.77,0,0,1-.55-.94.78.78,0,0,1,.94-.55,12,12,0,0,1,8.67,14.16A.78.78,0,0,1,23,15.16Z"/><path class="cls-1" d="M3.66,20.29A.75.75,0,0,1,3.09,20,12,12,0,0,1,8.94.39a.78.78,0,0,1,.94.55.78.78,0,0,1-.55.94A10.47,10.47,0,0,0,4.23,19a.77.77,0,0,1-.05,1.08A.8.8,0,0,1,3.66,20.29Z"/><path class="cls-1" d="M12,24a11.88,11.88,0,0,1-3.93-.66.76.76,0,0,1-.47-1,.77.77,0,0,1,1-.48,10.45,10.45,0,0,0,11.36-3.06.77.77,0,0,1,1.16,1A12,12,0,0,1,12,24Z"/><path class="cls-1" d="M5,11.17a.5.5,0,0,1-.17,0,.77.77,0,0,1-.58-.91A7.91,7.91,0,0,1,15,4.66a.77.77,0,0,1,.42,1,.75.75,0,0,1-1,.42,6.4,6.4,0,0,0-8.62,4.5A.77.77,0,0,1,5,11.17Z"/><path class="cls-1" d="M10.31,19.71a.55.55,0,0,1-.18,0,8,8,0,0,1-5-3.76.77.77,0,1,1,1.33-.76,6.4,6.4,0,0,0,4,3,.76.76,0,0,1-.18,1.51Z"/><path class="cls-1" d="M15.61,18.94a.79.79,0,0,1-.67-.38.77.77,0,0,1,.28-1A6.4,6.4,0,0,0,18.38,12a6.28,6.28,0,0,0-.46-2.39A.77.77,0,0,1,19.34,9a7.87,7.87,0,0,1,.57,3A8,8,0,0,1,16,18.84.75.75,0,0,1,15.61,18.94Z"/><path class="cls-1" d="M17.87,6.89a.77.77,0,1,1-.76-.76A.76.76,0,0,1,17.87,6.89Z"/><path class="cls-1" d="M13.79,19.15a.78.78,0,0,1-.77.77.77.77,0,0,1,0-1.54A.78.78,0,0,1,13.79,19.15Z"/><path class="cls-1" d="M5.62,13a.78.78,0,0,1-.77.77.77.77,0,0,1,0-1.54A.78.78,0,0,1,5.62,13Z"/><path class="cls-1" d="M6.64,21.19a.77.77,0,1,1-1.53,0,.77.77,0,0,1,1.53,0Z"/><path class="cls-1" d="M12.77.77a.77.77,0,0,1-1.54,0,.77.77,0,1,1,1.54,0Z"/><path class="cls-1" d="M23,17.11a.77.77,0,1,1-.77-.77A.76.76,0,0,1,23,17.11Z"/><path class="cls-1" d="M12,16.85a.77.77,0,0,1-.77-.77,3.31,3.31,0,0,0-3.32-3.31.77.77,0,0,1,0-1.54,3.31,3.31,0,0,0,3.32-3.31.77.77,0,0,1,1.54,0,3.31,3.31,0,0,0,3.32,3.31.77.77,0,0,1,0,1.54,3.31,3.31,0,0,0-3.32,3.31A.77.77,0,0,1,12,16.85ZM10.53,12A4.91,4.91,0,0,1,12,13.47,4.91,4.91,0,0,1,13.47,12,4.91,4.91,0,0,1,12,10.53,4.91,4.91,0,0,1,10.53,12Z"/></g></g></svg>