<svg xmlns="http://www.w3.org/2000/svg" viewBox="0 0 24 24"><defs><style>.cls-1{fill:#1e0f00;}</style></defs><g id="Слой_2" data-name="Слой 2"><g id="Layer_1" data-name="Layer 1"><path class="cls-1" d="M7.91,24H2.81A2.81,2.81,0,0,1,0,21.19V2.81A2.81,2.81,0,0,1,2.81,0H21.19A2.81,2.81,0,0,1,24,2.81V11a.77.77,0,1,1-1.53,0V2.81a1.28,1.28,0,0,0-1.28-1.28H2.81A1.28,1.28,0,0,0,1.53,2.81V21.19a1.28,1.28,0,0,0,1.28,1.28h5.1a.77.77,0,1,1,0,1.53Z"/><path class="cls-1" d="M14.22,24H12a1.79,1.79,0,0,1-1.79-1.79V20A2.77,2.77,0,0,1,11,18l7.57-7.57a.76.76,0,0,1,1.08,0l4.09,4.08a.79.79,0,0,1,0,1.09L16.2,23.18A2.78,2.78,0,0,1,14.22,24Zm4.93-11.94-7,7a1.3,1.3,0,0,0-.38.91v2.21a.26.26,0,0,0,.26.26h2.22a1.27,1.27,0,0,0,.9-.38l7-7Z"/><path class="cls-1" d="M20.17,18.89a.75.75,0,0,1-.54-.22l-4.09-4.09a.76.76,0,0,1,0-1.08.77.77,0,0,1,1.09,0l4.08,4.09a.76.76,0,0,1,0,1.08A.75.75,0,0,1,20.17,18.89Z"/><path class="cls-1" d="M6.89,13.79H3.83a.77.77,0,0,1,0-1.54H6.89a.77.77,0,1,1,0,1.54Z"/><path class="cls-1" d="M10,16.85H3.83a.77.77,0,1,1,0-1.53H10a.77.77,0,0,1,0,1.53Z"/><path class="cls-1" d="M7.91,19.92H3.83a.77.77,0,1,1,0-1.54H7.91a.77.77,0,1,1,0,1.54Z"/><path class="cls-1" d="M10,10.72H3.83a.77.77,0,1,1,0-1.53H10a.77.77,0,0,1,0,1.53Z"/><path class="cls-1" d="M13,13.79H10a.77.77,0,1,1,0-1.54H13a.77.77,0,0,1,0,1.54Z"/><path class="cls-1" d="M16.09,10.72H13a.77.77,0,0,1,0-1.53h3.07a.77.77,0,0,1,0,1.53Z"/><path class="cls-1" d="M23.23,7.66H.77a.77.77,0,1,1,0-1.53H23.23a.77.77,0,1,1,0,1.53Z"/><path class="cls-1" d="M4.6,3.83a.77.77,0,1,0-.77.77A.78.78,0,0,0,4.6,3.83Z"/><path class="cls-1" d="M7.66,3.83a.77.77,0,1,0-.77.77A.77.77,0,0,0,7.66,3.83Z"/><path class="cls-1" d="M10.72,3.83A.77.77,0,1,0,10,4.6.77.77,0,0,0,10.72,3.83Z"/></g></g></svg>