<svg xmlns="http://www.w3.org/2000/svg" viewBox="0 0 24 24"><defs><style>.cls-1{fill:#1e0f00;}</style></defs><g id="Слой_2" data-name="Слой 2"><g id="Layer_1" data-name="Layer 1"><path class="cls-1" d="M21.19,24H2.81A2.81,2.81,0,0,1,0,21.19V2.81A2.81,2.81,0,0,1,2.81,0H21.19A2.81,2.81,0,0,1,24,2.81V21.19A2.81,2.81,0,0,1,21.19,24ZM2.81,1.53A1.28,1.28,0,0,0,1.53,2.81V21.19a1.28,1.28,0,0,0,1.28,1.28H21.19a1.28,1.28,0,0,0,1.28-1.28V2.81a1.28,1.28,0,0,0-1.28-1.28Z"/><path class="cls-1" d="M5.87,19.91a2.3,2.3,0,0,1-2.3-2.29v-.51a.77.77,0,0,1,1.54,0v.51a.76.76,0,0,0,.76.76.77.77,0,0,0,.77-.76v-1a.77.77,0,0,0-.77-.77,2.3,2.3,0,0,1-2.3-2.3v-1a2.3,2.3,0,0,1,4.6,0V13a.77.77,0,1,1-1.53,0v-.51a.78.78,0,0,0-.77-.77.77.77,0,0,0-.76.77v1a.77.77,0,0,0,.76.77,2.3,2.3,0,0,1,2.3,2.3v1A2.3,2.3,0,0,1,5.87,19.91Z"/><path class="cls-1" d="M23.23,7.66H.77a.77.77,0,1,1,0-1.53H23.23a.77.77,0,1,1,0,1.53Z"/><path class="cls-1" d="M4.6,3.83a.77.77,0,1,1-.77-.77A.78.78,0,0,1,4.6,3.83Z"/><path class="cls-1" d="M7.66,3.83a.77.77,0,1,1-.77-.77A.77.77,0,0,1,7.66,3.83Z"/><path class="cls-1" d="M10.72,3.83A.77.77,0,1,1,10,3.06.77.77,0,0,1,10.72,3.83Z"/><path class="cls-1" d="M18.13,19.91a2.3,2.3,0,0,1-2.3-2.29V12.51a2.3,2.3,0,0,1,4.6,0v5.11A2.3,2.3,0,0,1,18.13,19.91Zm0-8.17a.78.78,0,0,0-.77.77v5.11a.77.77,0,0,0,.77.76.76.76,0,0,0,.76-.76V12.51A.77.77,0,0,0,18.13,11.74Z"/><path class="cls-1" d="M13.53,19.91H10.47a.77.77,0,0,1-.77-.76V11a.78.78,0,0,1,.77-.77h3.06a.78.78,0,0,1,.77.77v1a.78.78,0,0,1-.77.77.77.77,0,0,1-.76-.77v-.26H11.23v6.64h1.54v-.25a.76.76,0,0,1,.76-.77.77.77,0,0,1,.77.77v1A.77.77,0,0,1,13.53,19.91Z"/><path class="cls-1" d="M12.51,15.83h-2a.77.77,0,1,1,0-1.53h2a.77.77,0,1,1,0,1.53Z"/></g></g></svg>