<svg xmlns="http://www.w3.org/2000/svg" viewBox="0 0 24 24"><defs><style>.cls-1{fill:#1e0f00;}</style></defs><g id="Слой_2" data-name="Слой 2"><g id="Layer_1" data-name="Layer 1"><path class="cls-1" d="M4.85,5.62a.77.77,0,0,1-.42-1.41l3.06-2a.77.77,0,0,1,.85,1.28l-3.06,2A.75.75,0,0,1,4.85,5.62Z"/><path class="cls-1" d="M7.91,3.57a.81.81,0,0,1-.42-.12L4.43,1.4A.76.76,0,0,1,4.21.34.77.77,0,0,1,5.28.13l3.06,2a.76.76,0,0,1,.21,1.06A.75.75,0,0,1,7.91,3.57Z"/><path class="cls-1" d="M.77,10.72A.76.76,0,0,1,0,10V3.83A1.79,1.79,0,0,1,1.79,2H7.91a.77.77,0,0,1,.77.77.76.76,0,0,1-.77.76H1.79a.26.26,0,0,0-.26.26V10A.76.76,0,0,1,.77,10.72Z"/><path class="cls-1" d="M16.09,22a.77.77,0,0,1-.43-1.41l3.06-2a.78.78,0,0,1,1.07.21.77.77,0,0,1-.22,1.07l-3.06,2A.74.74,0,0,1,16.09,22Z"/><path class="cls-1" d="M19.15,24a.75.75,0,0,1-.43-.13l-3.06-2a.77.77,0,0,1,.85-1.28l3.06,2.05a.76.76,0,0,1,.22,1.06A.77.77,0,0,1,19.15,24Z"/><path class="cls-1" d="M22.21,22H16.09a.77.77,0,0,1-.77-.77.76.76,0,0,1,.77-.76h6.12a.26.26,0,0,0,.26-.26V14A.77.77,0,0,1,24,14v6.13A1.79,1.79,0,0,1,22.21,22Z"/><path class="cls-1" d="M10,24H1.79A1.79,1.79,0,0,1,0,22.21V14a1.79,1.79,0,0,1,1.79-1.78H10A1.78,1.78,0,0,1,11.74,14v8.17A1.79,1.79,0,0,1,10,24ZM1.79,13.79a.26.26,0,0,0-.26.25v8.17a.26.26,0,0,0,.26.26H10a.26.26,0,0,0,.25-.26V14a.25.25,0,0,0-.25-.25Z"/><path class="cls-1" d="M22.21,11.75H14A1.79,1.79,0,0,1,12.26,10V1.79A1.79,1.79,0,0,1,14,0h8.17A1.79,1.79,0,0,1,24,1.79V10A1.79,1.79,0,0,1,22.21,11.75ZM14,1.53a.26.26,0,0,0-.25.26V10a.25.25,0,0,0,.25.25h8.17a.26.26,0,0,0,.26-.25V1.79a.26.26,0,0,0-.26-.26Z"/><path class="cls-1" d="M5.87,20.94h-2a.77.77,0,0,1,0-1.54h2a.77.77,0,0,1,0,1.54Z"/><path class="cls-1" d="M18.13,8.68h-2a.77.77,0,1,1,0-1.53h2a.77.77,0,0,1,0,1.53Z"/></g></g></svg>