<svg xmlns="http://www.w3.org/2000/svg" viewBox="0 0 24 24"><defs><style>.cls-1{fill:#1e0f00;}</style></defs><g id="Слой_2" data-name="Слой 2"><g id="Layer_1" data-name="Layer 1"><path class="cls-1" d="M12,9.7a.68.68,0,0,1-.34-.08L3.49,5.54a.78.78,0,0,1-.43-.69.76.76,0,0,1,.43-.68L11.66.08a.74.74,0,0,1,.68,0l8.17,4.09a.76.76,0,0,1,.43.68.78.78,0,0,1-.43.69L12.34,9.62A.68.68,0,0,1,12,9.7ZM5.54,4.85,12,8.08l6.46-3.23L12,1.62Z"/><path class="cls-1" d="M12,17.87a.68.68,0,0,1-.34-.08L3.49,13.71A.78.78,0,0,1,3.06,13V4.85a.77.77,0,0,1,1.54,0v7.7l7.4,3.7,7.4-3.7V4.85a.77.77,0,0,1,1.54,0V13a.78.78,0,0,1-.43.69l-8.17,4.08A.68.68,0,0,1,12,17.87Z"/><path class="cls-1" d="M12,17.87a.77.77,0,0,1-.77-.76V8.94a.77.77,0,1,1,1.54,0v8.17A.77.77,0,0,1,12,17.87Z"/><path class="cls-1" d="M12,24C6.18,24,0,22.3,0,19.15a.77.77,0,0,1,.77-.77.77.77,0,0,1,.76.77c0,1.2,3,2.82,8.05,3.22L7.46,20.78a.77.77,0,0,1-.16-1.07.76.76,0,0,1,1.07-.15l4.09,3.06a.78.78,0,0,1,.27.86A.78.78,0,0,1,12,24Z"/><path class="cls-1" d="M.77,19.92A.77.77,0,0,1,0,19.15c0-1.6,1.63-3,4.6-3.88a.78.78,0,0,1,1,.51.77.77,0,0,1-.52,1c-2.13.64-3.51,1.59-3.51,2.41A.77.77,0,0,1,.77,19.92Z"/><path class="cls-1" d="M23.23,19.92a.77.77,0,0,1-.76-.77c0-.82-1.38-1.77-3.51-2.41a.77.77,0,1,1,.44-1.47c3,.9,4.6,2.28,4.6,3.88A.77.77,0,0,1,23.23,19.92Z"/><path class="cls-1" d="M15.08,23.84A.76.76,0,0,1,15,22.32c4.67-.49,7.47-2,7.47-3.17a.77.77,0,1,1,1.53,0c0,2.29-3.47,4.13-8.84,4.69Z"/></g></g></svg>