<svg id="Layer_1" data-name="Layer 1" xmlns="http://www.w3.org/2000/svg" viewBox="0 0 1916.59 1136.64"><defs><style>.cls-1{fill:#fff;}</style></defs><path class="cls-1" d="M181.05,702c27.45-20.28,42-49.3,42-83.91,0-74.61-55.81-101.72-108.11-121.27l-3.73-1.4c-49.75-18.63-65.83-26.37-65.83-46.81,0-17.41,18.82-31.06,42.84-31.06,37.76,0,64.36,35.24,64.61,35.57L161,464.29l59.7-59L214.53,397a143.57,143.57,0,0,0-20.2-21H3.41V535.65c22.24,17.2,49.86,28.89,75.72,37.93h0c46.24,16.15,57.53,24.89,57.53,44.53,0,23.3-31.76,29.52-50.52,29.52-46.49,0-74.36-47.29-74.62-47.74L4.4,587.43l-1,.84v119.5c21.37,12.52,48.81,22.12,82.73,22.12C123,729.89,156.72,720,181.05,702Z" transform="translate(-3.41 -375.97)"/><polygon class="cls-1" points="330.83 47.74 330.83 347.78 416.16 347.78 416.16 47.74 514.98 47.74 514.98 0 232.01 0 232.01 47.74 330.83 47.74"/><path class="cls-1" d="M575.34,687.83c27.3,27.52,65.09,42.06,109.28,42.06s82-14.54,109.28-42.06c26.38-26.59,40.91-64.26,40.91-106.08V376H749.48v198.1c0,64-40.64,73.56-64.86,73.56-56.43,0-64.85-46.08-64.85-73.56V376H534.43V581.75C534.43,623.57,549,661.24,575.34,687.83Z" transform="translate(-3.41 -375.97)"/><path class="cls-1" d="M981.92,723.75c53.5,0,101.9-19.32,136.27-54.4C1152.26,634.59,1171,586,1171,532.6s-18.76-102-52.83-136.74A172.4,172.4,0,0,0,1094.88,376H854.26V723.75Zm1-300c29.78,0,55.38,11,74,31.86,17.85,19.93,27.68,47.28,27.68,77,0,71.49-51.17,108.89-101.72,108.89H939.59V423.72Z" transform="translate(-3.41 -375.97)"/><rect class="cls-1" x="1188.59" width="85.33" height="347.78"/><path class="cls-1" d="M1298.32,532.6c0,54.49,19.48,104.48,54.85,140.76,35.54,36.46,84.68,56.53,138.35,56.53s102.8-20.07,138.34-56.53c35.37-36.28,54.85-86.27,54.85-140.76s-19.48-104.47-54.85-140.75A182,182,0,0,0,1612.25,376H1370.79a182.12,182.12,0,0,0-17.62,15.88C1317.8,428.13,1298.32,478.12,1298.32,532.6Zm193.2-115c61.9,0,106.84,48.38,106.84,115s-44.94,115-106.84,115-106.84-48.37-106.84-115S1429.61,417.57,1491.52,417.57Z" transform="translate(-3.41 -375.97)"/><path class="cls-1" d="M181.05,1115c27.45-20.28,42-49.3,42-83.91,0-74.61-55.81-101.72-108.11-121.27l-3.73-1.4c-49.75-18.63-65.83-26.37-65.83-46.8,0-17.42,18.82-31.06,42.84-31.06,37.76,0,64.36,35.24,64.61,35.57L161,877.31l59.7-59L214.53,810c-1.86-2.51-46.48-61.68-126.34-61.68-34.66,0-63.31,10.6-84.78,27.08V948.66c22.24,17.21,49.86,28.89,75.72,37.93h0c46.24,16.16,57.53,24.9,57.53,44.53,0,23.31-31.76,29.53-50.52,29.53-46.49,0-74.36-47.29-74.62-47.74L4.4,1000.45l-1,.83v119.5c21.37,12.53,48.81,22.13,82.73,22.13C123,1142.91,156.72,1133,181.05,1115Z" transform="translate(-3.41 -375.97)"/><path class="cls-1" d="M448.12,987.09c0,64-40.64,73.56-64.86,73.56-56.42,0-64.85-46.09-64.85-73.56V754.47H233.08v240.3c0,41.81,14.52,79.49,40.9,106.08,27.3,27.51,65.09,42.06,109.28,42.06s82-14.55,109.29-42.06c26.37-26.59,40.9-64.27,40.9-106.08V754.47H448.12Z" transform="translate(-3.41 -375.97)"/><path class="cls-1" d="M683.29,754.47H549.49v382.29h85.33v-129h48.47c37.2,0,70.75-12.86,94.46-36.2,23.39-23,36.27-55.15,36.27-90.44s-12.88-67.4-36.27-90.43C754,767.32,720.49,754.47,683.29,754.47Zm-7.68,171H634.82V836.73h40.79c33.57,0,52,15.76,52,44.37S709.18,925.48,675.61,925.48Z" transform="translate(-3.41 -375.97)"/><polygon class="cls-1" points="909.25 606.17 1052.61 606.17 1052.61 523.9 909.25 523.9 909.25 460.76 1064.9 460.76 1064.9 378.5 823.91 378.5 823.91 760.79 1067.97 760.79 1067.97 678.53 909.25 678.53 909.25 606.17"/><path class="cls-1" d="M1345.13,878c0-72.75-53.76-123.56-130.73-123.56H1084.69v382.29H1170V1001.59h9.62l85,135.17H1364.8l-93-144.53C1318,974.41,1345.13,932.79,1345.13,878Zm-138.41,41.3H1170v-82.6h36.7c34.54,0,52,13.9,52,41.3S1241.26,919.33,1206.72,919.33Z" transform="translate(-3.41 -375.97)"/><polygon class="cls-1" points="249.8 791.51 139.56 961.71 29.32 791.51 0 791.51 0 1136.64 39.38 1136.64 39.38 961.12 139.56 1113.45 239.74 961.12 239.74 1136.64 325.07 1136.64 325.07 791.51 249.8 791.51"/><path class="cls-1" d="M476.64,1167.48,342.53,1512.61H430l18.43-47.83H583.62l18.44,47.83h87.5L555.45,1167.48Zm3,217.09L516,1290l36.37,94.55Z" transform="translate(-3.41 -375.97)"/><path class="cls-1" d="M864.47,1322.87l-3.73-1.4c-49.75-18.63-65.83-26.38-65.83-46.81,0-17.42,18.82-31.06,42.84-31.06,37.76,0,64.36,35.24,64.61,35.57l8.18,11.15,59.7-59-6.15-8.32c-1.86-2.52-46.48-61.68-126.34-61.68-80.87,0-129.2,57.62-129.2,113.32,0,73.52,64.2,105.39,120.13,124.94h0c46.24,16.16,57.53,24.9,57.53,44.53,0,23.31-31.76,29.53-50.52,29.53-46.5,0-74.36-47.29-74.62-47.74L754,1413.46,689.35,1468l4.88,8.63c.84,1.48,10.57,18.24,30,36H947.51c16.45-18.57,25.06-41.86,25.06-68.48C972.57,1369.53,916.77,1342.42,864.47,1322.87Z" transform="translate(-3.41 -375.97)"/><path class="cls-1" d="M1157.16,1322.87l-3.74-1.4c-49.74-18.63-65.83-26.38-65.83-46.81,0-17.42,18.82-31.06,42.84-31.06,37.77,0,64.37,35.24,64.61,35.57l8.19,11.15,59.7-59-6.15-8.32c-1.86-2.52-46.48-61.68-126.35-61.68-80.87,0-129.19,57.62-129.19,113.32,0,73.52,64.2,105.39,120.13,124.94h0c46.24,16.16,57.53,24.9,57.53,44.53,0,23.31-31.75,29.53-50.52,29.53-46.49,0-74.35-47.29-74.62-47.74l-7.11-12.46L982,1468l4.89,8.63c.84,1.48,10.57,18.24,30,36h223.24c16.45-18.57,25.07-41.86,25.07-68.48C1265.26,1369.53,1209.45,1342.42,1157.16,1322.87Z" transform="translate(-3.41 -375.97)"/><rect class="cls-1" x="1279.07" y="791.51" width="85.33" height="345.13"/><polygon class="cls-1" points="1645.33 791.51 1559.07 1001.99 1471.88 791.51 1378.65 791.51 1527.86 1136.64 1586.32 1136.64 1735.52 791.51 1645.33 791.51"/><polygon class="cls-1" points="1916.59 1091.54 1831.34 1091.54 1831.34 1019.18 1916.59 1019.18 1916.59 936.92 1831.34 936.92 1831.34 873.77 1916.59 873.77 1916.59 791.51 1746.01 791.51 1746.01 1136.64 1916.59 1136.64 1916.59 1091.54"/></svg>